<svg width="48" height="48" fill="none" xmlns="http://www.w3.org/2000/svg"><path d="M9.5 44h29c.275 0 .5-.225.5-.5V14h-8.5c-.827 0-1.5-.673-1.5-1.5V4H9.5c-.275 0-.5.225-.5.5v39c0 .275.225.5.5.5z" fill="#fff"/><path d="M38.293 13 30 4.707V12.5c0 .275.225.5.5.5h7.793z" fill="#fff"/><path opacity=".67" fill-rule="evenodd" clip-rule="evenodd" d="m39.56 12.854-9.414-9.415A1.51 1.51 0 0 0 29.086 3H9.5C8.673 3 8 3.673 8 4.5v39c0 .827.673 1.5 1.5 1.5h29c.827 0 1.5-.673 1.5-1.5V13.914c0-.4-.156-.777-.44-1.06zM30 4.707 38.293 13H30.5a.501.501 0 0 1-.5-.5V4.707zM9.5 44h29c.275 0 .5-.225.5-.5V14h-8.5c-.827 0-1.5-.673-1.5-1.5V4H9.5c-.275 0-.5.225-.5.5v39c0 .276.224.5.5.5z" fill="#605E5C"/><path d="m26.468 28.023 9.308 3.49a.346.346 0 0 1-.038.66l-4.453 1.112-1.113 4.453a.346.346 0 0 1-.66.038l-3.49-9.308a.346.346 0 0 1 .446-.445z" fill="#0078D7"/><path d="M14.5 33.5c1.217-7.84 8.207-14.025 17-15" stroke="#C8C6C4" stroke-linecap="round"/><path d="M15.5 37h-2v1h2v-1zm-2 0a.5.5 0 0 1-.5-.5h-1a1.5 1.5 0 0 0 1.5 1.5v-1zm-.5-.5v-2h-1v2h1zm0-2a.5.5 0 0 1 .5-.5v-1a1.5 1.5 0 0 0-1.5 1.5h1zm.5-.5h2v-1h-2v1zm2 0a.5.5 0 0 1 .5.5h1a1.5 1.5 0 0 0-1.5-1.5v1zm.5.5v2h1v-2h-1zm0 2a.5.5 0 0 1-.5.5v1a1.5 1.5 0 0 0 1.5-1.5h-1zM34.5 20h-2v1h2v-1zm-2 0a.5.5 0 0 1-.5-.5h-1a1.5 1.5 0 0 0 1.5 1.5v-1zm-.5-.5v-2h-1v2h1zm0-2a.5.5 0 0 1 .5-.5v-1a1.5 1.5 0 0 0-1.5 1.5h1zm.5-.5h2v-1h-2v1zm2 0a.5.5 0 0 1 .5.5h1a1.5 1.5 0 0 0-1.5-1.5v1zm.5.5v2h1v-2h-1zm0 2a.5.5 0 0 1-.5.5v1a1.5 1.5 0 0 0 1.5-1.5h-1zM21 26.5a3.5 3.5 0 1 0 0-7 3.5 3.5 0 0 0 0 7z" fill="#0078D7"/><path fill-rule="evenodd" clip-rule="evenodd" d="M17 23c0-2.206 1.794-4 4-4s4 1.794 4 4-1.794 4-4 4-4-1.794-4-4zm7 0a3 3 0 1 0-6 0 3 3 0 0 0 6 0z" fill="#fff"/></svg>